<svg xmlns="http://www.w3.org/2000/svg" width="14.999" height="13.828" viewBox="0 0 14.999 13.828">
  <g id="Path_18" data-name="Path 18" transform="translate(14.999 13.828) rotate(180)" fill="none">
    <path d="M3,13.828a3,3,0,0,1-3-3V0L4.866,3.373H12a3,3,0,0,1,3,3v4.455a3,3,0,0,1-3,3Z" stroke="none"/>
    <path d="M 11.99970054626465 12.82760047912598 C 13.10233974456787 12.82760047912598 13.99940013885498 11.93054008483887 13.99940013885498 10.82789993286133 L 13.99940013885498 6.372900009155273 C 13.99940013885498 5.270260334014893 13.10233974456787 4.373200416564941 11.99970054626465 4.373200416564941 L 4.866230010986328 4.373200416564941 L 4.553530216217041 4.373200416564941 L 4.296530246734619 4.195050239562988 L 1.00000011920929 1.909943461418152 L 1.00000011920929 6.372900009155273 L 1.00000011920929 10.82789993286133 C 1.00000011920929 11.93054008483887 1.897060036659241 12.82760047912598 2.99970006942749 12.82760047912598 L 11.99970054626465 12.82760047912598 M 11.99970054626465 13.82760047912598 L 2.99970006942749 13.82760047912598 C 1.34280002117157 13.82760047912598 6.942748598248727e-08 12.48480033874512 6.942748598248727e-08 10.82789993286133 L 6.942748598248727e-08 6.372900009155273 L 6.942748598248727e-08 2.395629792317777e-07 L 4.866230010986328 3.373200178146362 L 11.99970054626465 3.373200178146362 C 13.65659999847412 3.373200178146362 14.99940013885498 4.716000080108643 14.99940013885498 6.372900009155273 L 14.99940013885498 10.82789993286133 C 14.99940013885498 12.48480033874512 13.65659999847412 13.82760047912598 11.99970054626465 13.82760047912598 Z" stroke="none" fill="#000"/>
  </g>
</svg>
