<svg xmlns="http://www.w3.org/2000/svg" width="141.137" height="144.005" viewBox="0 0 141.137 144.005">
  <path id="Path_17" data-name="Path 17" d="M-371.836,160.335a71.994,71.994,0,0,1,0-64.66h.006l0,0a72,72,0,0,1,64.328-39.667,69.182,69.182,0,0,1,48.171,18.75L-279.887,95.3a39.094,39.094,0,0,0-27.62-10.8c-18.779,0-34.719,12.66-40.42,29.721a43.142,43.142,0,0,0,0,27.56c5.7,17.059,21.641,29.72,40.42,29.72,9.73,0,18.05-2.5,24.511-6.88v-.01a33.329,33.329,0,0,0,14.379-21.881h-38.89V115h67.9a85.912,85.912,0,0,1,1.24,14.64c0,21.91-7.83,40.44-21.42,52.97h-.013l.013.01c-11.93,11-28.291,17.38-47.721,17.38A72,72,0,0,1-371.836,160.335Z" transform="translate(379.503 -56)" fill="#fff"/>
</svg>
